<svg id="Component_28_3" data-name="Component 28 – 3" xmlns="http://www.w3.org/2000/svg" width="62" height="62" viewBox="0 0 62 62">
  <rect id="Rectangle_1597" data-name="Rectangle 1597" width="62" height="62" fill="none"/>
  <path id="Icon_metro-cc-paypal" data-name="Icon metro-cc-paypal" d="M9.838,26.516H9.5q-.429,0-.429-.406A6.8,6.8,0,0,1,9.5,24.192a.681.681,0,0,1,.339-.44,1.579,1.579,0,0,1,.632-.1q1.738,0,1.738,1.106a1.452,1.452,0,0,1-.688,1.343,3.186,3.186,0,0,1-1.681.418Zm7.719,3.634q-1.061,0-1.061-.654,0-1.4,2.776-1.4l.068.068Q19.227,30.15,17.557,30.15Zm17.469-3.589h-.339a.379.379,0,0,1-.429-.429,6.8,6.8,0,0,1,.429-1.918.649.649,0,0,1,.327-.429,1.743,1.743,0,0,1,.643-.09Q37.4,23.7,37.4,24.8a1.452,1.452,0,0,1-.688,1.343,3.186,3.186,0,0,1-1.681.418Zm7.719,3.611q-1.061,0-1.061-.677,0-1.4,2.776-1.4l.068.068q-.113,2.009-1.783,2.009ZM10.989,21.89H8.1a.612.612,0,0,0-.327.09.55.55,0,0,0-.192.169q-.045.079-.158.282-.068.158-1.016,4.288T5.46,31.053a.389.389,0,0,0,.124.282.414.414,0,0,0,.3.124h1.4q.564,0,.733-.779l.339-1.557.733-.779a10.852,10.852,0,0,0,1.975-.169,8.678,8.678,0,0,0,1.817-.553,3.162,3.162,0,0,0,1.433-1.185,3.375,3.375,0,0,0,.53-1.907,2.7,2.7,0,0,0-.327-1.377,1.933,1.933,0,0,0-.925-.824,4.789,4.789,0,0,0-1.207-.35,9.639,9.639,0,0,0-1.4-.09ZM18.8,24.056a10.143,10.143,0,0,0-1.67.135,1.644,1.644,0,0,0-.192.023q-.147.023-.2.034l-.169.034-.169.045-.147.068-.147.09-.113.113-.1.158-.09.2a3.769,3.769,0,0,0-.2.88q0,.226.2.226a2.246,2.246,0,0,0,.485-.113q.372-.113.44-.135a5.074,5.074,0,0,1,1.309-.181q1.67,0,1.67.812a.3.3,0,0,1-.226.316,2.852,2.852,0,0,1-.406.068q-.226.023-.485.034a3.518,3.518,0,0,0-.395.034,12.785,12.785,0,0,0-1.456.226,6.777,6.777,0,0,0-1.275.44,2.236,2.236,0,0,0-1.027.88,2.669,2.669,0,0,0-.35,1.411,1.648,1.648,0,0,0,.587,1.343,2.191,2.191,0,0,0,1.444.485,3.53,3.53,0,0,0,1.027-.147,3.815,3.815,0,0,0,.745-.293q.26-.147.869-.53a.85.85,0,0,0-.068.339.414.414,0,0,0,.124.3.389.389,0,0,0,.282.124h1.264a.693.693,0,0,1,.158-.079,1.311,1.311,0,0,0,.169-.079l.113-.079a.347.347,0,0,0,.113-.124.734.734,0,0,0,.056-.181l1.016-4.378a2.306,2.306,0,0,0,.09-.677q0-1.828-3.273-1.828Zm11.917.113h-1.67a1.092,1.092,0,0,0-.88.519q-.113.158-.666,1.151t-1.049,1.839a3.61,3.61,0,0,1-.587.869l-.113-.09a12.95,12.95,0,0,0-.609-3.747.491.491,0,0,0-.079-.192.825.825,0,0,0-.135-.147,1.554,1.554,0,0,0-.147-.113.515.515,0,0,0-.192-.068l-.192-.034q-.068-.011-.214-.023t-.2-.011H23.56q-.858,0-.858.474l.023.113q.113,1.2.564,3.408t.564,3.227a4.788,4.788,0,0,1,.045.542,3,3,0,0,1-.688,1.388,3.1,3.1,0,0,0-.688,1.32q0,.293.9.293,1.377,0,1.715-.564l5.53-9.366a1.866,1.866,0,0,0,.226-.587q0-.2-.181-.2Zm5.462-2.234H33.265q-.406,0-.654.519-.135.293-1.049,4.322t-.914,4.3q0,.451.97.451h.575l.214-.023.192-.045.192-.068.147-.1.124-.135.068-.192.474-2.054a.654.654,0,0,1,.237-.384.673.673,0,0,1,.44-.158,11.608,11.608,0,0,0,1.975-.158,7.868,7.868,0,0,0,1.817-.553,3.259,3.259,0,0,0,1.433-1.185,3.321,3.321,0,0,0,.53-1.9,2.7,2.7,0,0,0-.327-1.377,1.933,1.933,0,0,0-.925-.824,4.789,4.789,0,0,0-1.207-.35,9.639,9.639,0,0,0-1.4-.09Zm7.809,2.122a14.475,14.475,0,0,0-1.67.135,2.182,2.182,0,0,0-1.083.361,1.337,1.337,0,0,0-.248.429,2.934,2.934,0,0,0-.181.88q0,.226.181.226.023,0,.925-.271a5.074,5.074,0,0,1,1.309-.181q1.67,0,1.67.812a.278.278,0,0,1-.226.316q-.09.023-1.286.158a12.784,12.784,0,0,0-1.456.226,6.777,6.777,0,0,0-1.275.44,2.236,2.236,0,0,0-1.027.88,2.669,2.669,0,0,0-.35,1.411,1.623,1.623,0,0,0,.587,1.32,2.191,2.191,0,0,0,1.444.485,3.681,3.681,0,0,0,1.016-.135,3.918,3.918,0,0,0,.767-.293q.293-.158.858-.542-.068.339-.068.361a.381.381,0,0,0,.045.192.3.3,0,0,0,.147.124l.181.079a.774.774,0,0,0,.237.045q.158.011.214.011h.395q.948,0,1.083-.564l1.016-4.378a3.56,3.56,0,0,0,.068-.7q0-1.828-3.273-1.828ZM51.253,22H50.012q-.564,0-.745.9-.226.993-.824,3.769t-.959,4.288v.113a.368.368,0,0,0,.361.406h1.309a.673.673,0,0,0,.418-.147.607.607,0,0,0,.237-.372l1.873-8.441h-.023l.023-.113a.389.389,0,0,0-.124-.282A.414.414,0,0,0,51.253,22Zm3.318-8.825V42.067a2.929,2.929,0,0,1-2.889,2.889H5.459A2.776,2.776,0,0,1,3.428,44.1a2.776,2.776,0,0,1-.858-2.031V13.178a2.776,2.776,0,0,1,.858-2.031,2.776,2.776,0,0,1,2.031-.858H51.682a2.929,2.929,0,0,1,2.889,2.889Z" transform="translate(2.43 1.711)" fill="#415ffa"/>
</svg>
