<svg id="Component_26_3" data-name="Component 26 – 3" xmlns="http://www.w3.org/2000/svg" width="62" height="62" viewBox="0 0 62 62">
  <rect id="Rectangle_1595" data-name="Rectangle 1595" width="62" height="62" fill="none"/>
  <path id="Icon_metro-visa" data-name="Icon metro-visa" d="M47.145,29.744H44.031q.316-.835,1.49-4.04l.068-.2q.09-.226.226-.587t.2-.587l.271,1.241Zm-32.59-1.467-1.309-6.658A1.5,1.5,0,0,0,11.553,20.4H5.5l-.045.293q7.019,1.783,9.1,7.583Zm4.04-7.877-3.656,9.885-.384-2.009a8.206,8.206,0,0,0-1.918-2.923,8.753,8.753,0,0,0-2.957-2l3.047,11.51h3.95L22.567,20.4H18.595Zm3.137,14.49h3.747L27.826,20.4H24.079ZM39.065,20.761a9.147,9.147,0,0,0-3.363-.609,7.315,7.315,0,0,0-4.536,1.332,4.2,4.2,0,0,0-1.783,3.453q-.023,2.3,3.273,3.927a6.242,6.242,0,0,1,1.512.925,1.2,1.2,0,0,1,.429.88,1.129,1.129,0,0,1-.677,1.038,3.259,3.259,0,0,1-1.557.361,8.155,8.155,0,0,1-3.521-.745l-.5-.248-.519,3.25A10,10,0,0,0,32,35.093a7.452,7.452,0,0,0,4.706-1.332,4.438,4.438,0,0,0,1.817-3.611q0-2.392-3.16-3.927a10.906,10.906,0,0,1-1.6-.948,1.086,1.086,0,0,1-.5-.858,1.054,1.054,0,0,1,.553-.869,2.843,2.843,0,0,1,1.591-.372,6.371,6.371,0,0,1,2.8.542l.339.181Zm9.592-.361H45.768A1.917,1.917,0,0,0,43.8,21.619L38.253,34.89H42.18l.79-2.167h4.785q.113.5.451,2.167h3.476Zm5.913-7.222V42.067a2.929,2.929,0,0,1-2.889,2.889H5.459A2.776,2.776,0,0,1,3.428,44.1a2.776,2.776,0,0,1-.858-2.031V13.178a2.776,2.776,0,0,1,.858-2.031,2.776,2.776,0,0,1,2.031-.858H51.682a2.929,2.929,0,0,1,2.889,2.889Z" transform="translate(2.43 1.711)" fill="#415ffa"/>
</svg>
