<svg id="Component_27_3" data-name="Component 27 – 3" xmlns="http://www.w3.org/2000/svg" width="62" height="62" viewBox="0 0 62 62">
  <rect id="Rectangle_1596" data-name="Rectangle 1596" width="62" height="62" fill="none"/>
  <path id="Icon_metro-mastercard" data-name="Icon metro-mastercard" d="M17.715,28.457h-.293q-1.061,0-1.061.722,0,.5.451.5a.754.754,0,0,0,.632-.339A1.567,1.567,0,0,0,17.715,28.457Zm8.915-.813h1.4v-.068a.347.347,0,0,0,.011-.147q-.011-.056-.023-.158a.635.635,0,0,0-.045-.181.469.469,0,0,0-.1-.147.554.554,0,0,0-.169-.113.643.643,0,0,0-.26-.045q-.632,0-.812.858Zm12.187.813h-.271q-1.083,0-1.083.722,0,.5.451.5a.754.754,0,0,0,.632-.339A1.567,1.567,0,0,0,38.817,28.457Zm7.2-.587q0-.925-.677-.925a.8.8,0,0,0-.7.451,2.209,2.209,0,0,0-.271,1.151q0,.948.632.948a.841.841,0,0,0,.733-.451A2.187,2.187,0,0,0,46.017,27.871ZM13.4,24.688h1.964L14.374,30.6H13.111l.722-4.536L12.23,30.6h-.88l-.09-4.514L10.492,30.6H9.3l.993-5.913h1.828l.045,3.679Zm5.71,2.415q0,.135-.09.948-.361,2.28-.384,2.55H17.579l.023-.5a1.552,1.552,0,0,1-1.309.587,1.09,1.09,0,0,1-.846-.361,1.357,1.357,0,0,1-.327-.948,1.673,1.673,0,0,1,.587-1.365,2.516,2.516,0,0,1,1.648-.485,4.867,4.867,0,0,1,.519.023.634.634,0,0,1,.011-.124q.011-.056.023-.1a.311.311,0,0,0,.011-.068q0-.451-.812-.451a4.2,4.2,0,0,0-1.332.226q0-.09.158-1.083a5.529,5.529,0,0,1,1.512-.248q1.67,0,1.67,1.4Zm3.521-1.309L22.454,26.9a6.876,6.876,0,0,0-.925-.068q-.609,0-.609.384a.344.344,0,0,0,.1.271,2.041,2.041,0,0,0,.485.248,1.418,1.418,0,0,1,.9,1.354q0,1.625-1.964,1.6a5.468,5.468,0,0,1-1.309-.135q0-.045.158-1.106a4.4,4.4,0,0,0,1.151.181q.722,0,.722-.429a.351.351,0,0,0-.1-.26,2.017,2.017,0,0,0-.485-.282,1.434,1.434,0,0,1-.97-1.332q0-1.625,1.9-1.625A5.892,5.892,0,0,1,22.635,25.794Zm1.986,0h.632l-.158,1.174H24.44q-.045.384-.147.914t-.158.869a4,4,0,0,0-.056.406q0,.361.429.361a1.484,1.484,0,0,0,.361-.045l-.181,1.061a2.855,2.855,0,0,1-.9.158q-.97,0-1.016-1.061a9.757,9.757,0,0,1,.181-1.264q.068-.451.564-3.3h1.241ZM29.2,27.442a5.058,5.058,0,0,1-.158,1.174H26.539a.773.773,0,0,0,.226.745,1.3,1.3,0,0,0,.858.248,2.893,2.893,0,0,0,1.309-.316l-.2,1.219a5,5,0,0,1-1.286.181A1.9,1.9,0,0,1,25.3,28.548a3.237,3.237,0,0,1,.621-2.043,1.906,1.906,0,0,1,1.569-.8,1.67,1.67,0,0,1,1.253.474,1.732,1.732,0,0,1,.463,1.264Zm3.137-1.67a5.322,5.322,0,0,0-.5,1.4q-.5-.045-.7.542a22.845,22.845,0,0,0-.564,2.889H29.315l.068-.316q.5-2.934.654-4.491h1.151l-.068.745a2.694,2.694,0,0,1,.576-.666.746.746,0,0,1,.643-.1Zm4.22-.925-.2,1.286a2.577,2.577,0,0,0-1.128-.316,1.37,1.37,0,0,0-1.151.621,2.638,2.638,0,0,0-.451,1.591,1.663,1.663,0,0,0,.3,1.061,1.045,1.045,0,0,0,.869.384,2.552,2.552,0,0,0,1.083-.293l-.226,1.332a4.161,4.161,0,0,1-1.128.181A2.029,2.029,0,0,1,32.915,30a2.741,2.741,0,0,1-.6-1.862,4.016,4.016,0,0,1,.8-2.584,2.523,2.523,0,0,1,2.065-1,4.046,4.046,0,0,1,1.377.293ZM40.216,27.1a5.861,5.861,0,0,1-.09.948q-.293,1.783-.384,2.55H38.7l.023-.5a1.576,1.576,0,0,1-1.332.587,1.055,1.055,0,0,1-.835-.361,1.387,1.387,0,0,1-.316-.948,1.688,1.688,0,0,1,.576-1.365,2.469,2.469,0,0,1,1.636-.485,4.492,4.492,0,0,1,.519.023,1.073,1.073,0,0,0,.045-.293q0-.451-.812-.451a4.2,4.2,0,0,0-1.332.226q0-.09.181-1.083a5.529,5.529,0,0,1,1.512-.248q1.648,0,1.648,1.4ZM43.4,25.772a4.349,4.349,0,0,0-.474,1.4.65.65,0,0,0-.711.519,25.443,25.443,0,0,0-.576,2.911H40.374l.068-.316q.429-2.347.654-4.491H42.27a4.579,4.579,0,0,1-.09.745,3.036,3.036,0,0,1,.6-.666.707.707,0,0,1,.621-.1Zm3.182-1.083h1.264l-.97,5.913h-1.2l.068-.429a1.62,1.62,0,0,1-1.174.519,1.339,1.339,0,0,1-1.117-.542,2.3,2.3,0,0,1-.418-1.444,3.51,3.51,0,0,1,.621-2.076,1.773,1.773,0,0,1,1.456-.88,1.465,1.465,0,0,1,1.2.654Zm2.505,2.934a12.278,12.278,0,0,0-19.681-9.8,12.94,12.94,0,0,1,3.859,6.41H32.137a12.152,12.152,0,0,0-3.566-5.71A12.152,12.152,0,0,0,25,24.237H23.876a12.94,12.94,0,0,1,3.859-6.41A12.284,12.284,0,0,0,9.691,21.461,12.287,12.287,0,0,0,14.16,38.253a12.327,12.327,0,0,0,13.576-.835,12.981,12.981,0,0,1-3.724-5.958H25.14a12.051,12.051,0,0,0,3.431,5.259A12.051,12.051,0,0,0,32,31.459h1.128a12.98,12.98,0,0,1-3.724,5.958,12.256,12.256,0,0,0,19.681-9.8Zm5.484-14.444V42.067a2.929,2.929,0,0,1-2.889,2.889H5.459A2.776,2.776,0,0,1,3.428,44.1a2.776,2.776,0,0,1-.858-2.031V13.178a2.776,2.776,0,0,1,.858-2.031,2.776,2.776,0,0,1,2.031-.858H51.682a2.929,2.929,0,0,1,2.889,2.889Z" transform="translate(2.43 1.711)" fill="#415ffa"/>
</svg>
